# 3ds Max Wavefront OBJ Exporter v0.97b - (c)2007 guruware
# File Created: 29.08.2018 20:45:19

#
# object Box001
#

v  -20.0000 0.0000 -20.0000
v  20.0000 0.0000 -20.0000
v  20.0000 0.0000 30.0000
v  -20.0000 0.0000 30.0000
v  20.0000 40.0000 30.0000
v  20.0000 40.0000 -20.0000
v  -20.0000 40.0000 -20.0000
v  -20.0000 40.0000 30.0000
# 8 vertices

vn -0.5774 -0.5774 -0.5774
vn 0.5774 -0.5774 -0.5774
vn 0.5774 -0.5774 0.5774
vn -0.5774 -0.5774 0.5774
vn 0.5774 0.5774 0.5774
vn 0.5774 0.5774 -0.5774
vn -0.5774 0.5774 -0.5774
vn -0.5774 0.5774 0.5774
# 8 vertex normals

vt 1.0000 1.0000 0.0000
vt 0.0000 1.0000 0.0000
vt 0.0000 0.0000 0.0000
vt 1.0000 0.0000 0.0000
# 4 texture coords

g Box001
f 1/1/1 2/2/2 3/3/3 
f 3/3/3 4/4/4 1/1/1 
f 5/4/5 6/1/6 7/2/7 
f 7/2/7 8/3/8 5/4/5 
f 3/4/3 5/1/5 8/2/8 
f 8/2/8 4/3/4 3/4/3 
f 2/4/2 6/1/6 5/2/5 
f 5/2/5 3/3/3 2/4/2 
f 1/4/1 7/1/7 6/2/6 
f 6/2/6 2/3/2 1/4/1 
f 4/4/4 8/1/8 7/2/7 
f 7/2/7 1/3/1 4/4/4 
# 12 faces

#
# object Box002
#

v  -61.7963 0.0000 -34.6694
v  -37.5114 0.0000 -34.6694
v  -37.5114 0.0000 29.5973
v  -61.7963 0.0000 29.5973
v  -37.5114 27.0678 29.5973
v  -37.5114 27.0678 -34.6694
v  -61.7963 27.0678 -34.6694
v  -61.7963 27.0678 29.5973
# 8 vertices

vn -0.5774 -0.5774 -0.5774
vn 0.5774 -0.5774 -0.5774
vn 0.5774 -0.5774 0.5774
vn -0.5774 -0.5774 0.5774
vn 0.5774 0.5774 0.5774
vn 0.5774 0.5774 -0.5774
vn -0.5774 0.5774 -0.5774
vn -0.5774 0.5774 0.5774
# 8 vertex normals

vt 1.0000 1.0000 0.0000
vt 0.0000 1.0000 0.0000
vt 0.0000 0.0000 0.0000
vt 1.0000 0.0000 0.0000
# 4 texture coords

g Box002
f 9/5/9 10/6/10 11/7/11 
f 11/7/11 12/8/12 9/5/9 
f 13/8/13 14/5/14 15/6/15 
f 15/6/15 16/7/16 13/8/13 
f 11/8/11 13/5/13 16/6/16 
f 16/6/16 12/7/12 11/8/11 
f 10/8/10 14/5/14 13/6/13 
f 13/6/13 11/7/11 10/8/10 
f 9/8/9 15/5/15 14/6/14 
f 14/6/14 10/7/10 9/8/9 
f 12/8/12 16/5/16 15/6/15 
f 15/6/15 9/7/9 12/8/12 
# 12 faces

#
# object Box003
#

v  45.7419 0.0000 -41.1931
v  65.1833 0.0000 -41.1931
v  65.1833 0.0000 22.2315
v  45.7419 0.0000 22.2315
v  65.1833 38.2887 22.2315
v  65.1833 38.2887 -41.1931
v  45.7419 38.2887 -41.1931
v  45.7419 38.2887 22.2315
# 8 vertices

vn -0.5774 -0.5774 -0.5774
vn 0.5774 -0.5774 -0.5774
vn 0.5774 -0.5774 0.5774
vn -0.5774 -0.5774 0.5774
vn 0.5774 0.5774 0.5774
vn 0.5774 0.5774 -0.5774
vn -0.5774 0.5774 -0.5774
vn -0.5774 0.5774 0.5774
# 8 vertex normals

vt 1.0000 1.0000 0.0000
vt 0.0000 1.0000 0.0000
vt 0.0000 0.0000 0.0000
vt 1.0000 0.0000 0.0000
# 4 texture coords

g Box003
f 17/9/17 18/10/18 19/11/19 
f 19/11/19 20/12/20 17/9/17 
f 21/12/21 22/9/22 23/10/23 
f 23/10/23 24/11/24 21/12/21 
f 19/12/19 21/9/21 24/10/24 
f 24/10/24 20/11/20 19/12/19 
f 18/12/18 22/9/22 21/10/21 
f 21/10/21 19/11/19 18/12/18 
f 17/12/17 23/9/23 22/10/22 
f 22/10/22 18/11/18 17/12/17 
f 20/12/20 24/9/24 23/10/23 
f 23/10/23 17/11/17 20/12/20 
# 12 faces

#
# object Box004
#

v  23.7336 0.0000 -81.1070
v  90.2211 0.0000 -81.1070
v  90.2211 0.0000 -39.8973
v  23.7336 0.0000 -39.8973
v  90.2211 32.9387 -39.8973
v  90.2211 32.9387 -81.1070
v  23.7336 32.9387 -81.1070
v  23.7336 32.9387 -39.8973
# 8 vertices

vn -0.5774 -0.5774 -0.5774
vn 0.5774 -0.5774 -0.5774
vn 0.5774 -0.5774 0.5774
vn -0.5774 -0.5774 0.5774
vn 0.5774 0.5774 0.5774
vn 0.5774 0.5774 -0.5774
vn -0.5774 0.5774 -0.5774
vn -0.5774 0.5774 0.5774
# 8 vertex normals

vt 1.0000 1.0000 0.0000
vt 0.0000 1.0000 0.0000
vt 0.0000 0.0000 0.0000
vt 1.0000 0.0000 0.0000
# 4 texture coords

g Box004
f 25/13/25 26/14/26 27/15/27 
f 27/15/27 28/16/28 25/13/25 
f 29/16/29 30/13/30 31/14/31 
f 31/14/31 32/15/32 29/16/29 
f 27/16/27 29/13/29 32/14/32 
f 32/14/32 28/15/28 27/16/27 
f 26/16/26 30/13/30 29/14/29 
f 29/14/29 27/15/27 26/16/26 
f 25/16/25 31/13/31 30/14/30 
f 30/14/30 26/15/26 25/16/25 
f 28/16/28 32/13/32 31/14/31 
f 31/14/31 25/15/25 28/16/28 
# 12 faces

